M48
; DRILL file {KiCad 7.0.2} date Thu Jul  6 08:05:09 2023
; FORMAT={-:-/ absolute / inch / decimal}
; #@! TF.CreationDate,2023-07-06T08:05:09-07:00
; #@! TF.GenerationSoftware,Kicad,Pcbnew,7.0.2
; #@! TF.FileFunction,Plated,1,2,PTH
FMAT,2
INCH
; #@! TA.AperFunction,Plated,PTH,ComponentDrill
T1C0.0394
; #@! TA.AperFunction,Plated,PTH,ComponentDrill
T2C0.0543
%
G90
G05
T1
X4.6287Y-2.7
X4.6287Y-2.8
X4.6287Y-2.9
X4.6287Y-3.0
X4.6287Y-3.1
X4.6287Y-3.2
X4.6287Y-3.3
X4.6287Y-3.4
X4.6287Y-3.5
X4.6287Y-3.6
X4.6287Y-3.7
X4.6287Y-3.8
X4.6287Y-3.9
X5.5287Y-2.7006
X5.5287Y-2.8006
X5.5287Y-2.9006
X5.5287Y-3.0006
X5.5287Y-3.1006
X5.5287Y-3.2006
X5.5287Y-3.3006
X5.5287Y-3.4006
X5.5287Y-3.5006
X5.5287Y-3.6006
X5.5287Y-3.7006
X5.5287Y-3.8006
X5.5287Y-3.9006
T2
G00X4.0701Y-1.8299
M15
G01X4.0299Y-1.8299
M16
G05
G00X4.0701Y-4.7
M15
G01X4.0299Y-4.7
M16
G05
T0
M30
