%TF.GenerationSoftware,KiCad,Pcbnew,7.0.2*%
%TF.CreationDate,2023-07-06T08:05:11-07:00*%
%TF.ProjectId,LoRaWan_Bridge_w_Battery_CC1101flow,4c6f5261-5761-46e5-9f42-72696467655f,rev?*%
%TF.SameCoordinates,Original*%
%TF.FileFunction,Drillmap*%
%TF.FilePolarity,Positive*%
%FSLAX45Y45*%
G04 Gerber Fmt 4.5, Leading zero omitted, Abs format (unit mm)*
G04 Created by KiCad (PCBNEW 7.0.2) date 2023-07-06 08:05:11*
%MOMM*%
%LPD*%
G01*
G04 APERTURE LIST*
%ADD10C,0.200000*%
%ADD11C,0.100000*%
%ADD12C,0.138000*%
G04 APERTURE END LIST*
D10*
X8885600Y-3716000D02*
X14685600Y-3716000D01*
X14685600Y-14416000D01*
X8885600Y-14416000D01*
X8885600Y-3716000D01*
D11*
X11707000Y-6808000D02*
X11807000Y-6908000D01*
X11807000Y-6808000D02*
X11707000Y-6908000D01*
X11707000Y-7062000D02*
X11807000Y-7162000D01*
X11807000Y-7062000D02*
X11707000Y-7162000D01*
X11707000Y-7316000D02*
X11807000Y-7416000D01*
X11807000Y-7316000D02*
X11707000Y-7416000D01*
X11707000Y-7570000D02*
X11807000Y-7670000D01*
X11807000Y-7570000D02*
X11707000Y-7670000D01*
X11707000Y-7824000D02*
X11807000Y-7924000D01*
X11807000Y-7824000D02*
X11707000Y-7924000D01*
X11707000Y-8078000D02*
X11807000Y-8178000D01*
X11807000Y-8078000D02*
X11707000Y-8178000D01*
X11707000Y-8332000D02*
X11807000Y-8432000D01*
X11807000Y-8332000D02*
X11707000Y-8432000D01*
X11707000Y-8586000D02*
X11807000Y-8686000D01*
X11807000Y-8586000D02*
X11707000Y-8686000D01*
X11707000Y-8840000D02*
X11807000Y-8940000D01*
X11807000Y-8840000D02*
X11707000Y-8940000D01*
X11707000Y-9094000D02*
X11807000Y-9194000D01*
X11807000Y-9094000D02*
X11707000Y-9194000D01*
X11707000Y-9348000D02*
X11807000Y-9448000D01*
X11807000Y-9348000D02*
X11707000Y-9448000D01*
X11707000Y-9602000D02*
X11807000Y-9702000D01*
X11807000Y-9602000D02*
X11707000Y-9702000D01*
X11707000Y-9856000D02*
X11807000Y-9956000D01*
X11807000Y-9856000D02*
X11707000Y-9956000D01*
X13993000Y-6809500D02*
X14093000Y-6909500D01*
X14093000Y-6809500D02*
X13993000Y-6909500D01*
X13993000Y-7063500D02*
X14093000Y-7163500D01*
X14093000Y-7063500D02*
X13993000Y-7163500D01*
X13993000Y-7317500D02*
X14093000Y-7417500D01*
X14093000Y-7317500D02*
X13993000Y-7417500D01*
X13993000Y-7571500D02*
X14093000Y-7671500D01*
X14093000Y-7571500D02*
X13993000Y-7671500D01*
X13993000Y-7825500D02*
X14093000Y-7925500D01*
X14093000Y-7825500D02*
X13993000Y-7925500D01*
X13993000Y-8079500D02*
X14093000Y-8179500D01*
X14093000Y-8079500D02*
X13993000Y-8179500D01*
X13993000Y-8333500D02*
X14093000Y-8433500D01*
X14093000Y-8333500D02*
X13993000Y-8433500D01*
X13993000Y-8587500D02*
X14093000Y-8687500D01*
X14093000Y-8587500D02*
X13993000Y-8687500D01*
X13993000Y-8841500D02*
X14093000Y-8941500D01*
X14093000Y-8841500D02*
X13993000Y-8941500D01*
X13993000Y-9095500D02*
X14093000Y-9195500D01*
X14093000Y-9095500D02*
X13993000Y-9195500D01*
X13993000Y-9349500D02*
X14093000Y-9449500D01*
X14093000Y-9349500D02*
X13993000Y-9449500D01*
X13993000Y-9603500D02*
X14093000Y-9703500D01*
X14093000Y-9603500D02*
X13993000Y-9703500D01*
X13993000Y-9857500D02*
X14093000Y-9957500D01*
X14093000Y-9857500D02*
X13993000Y-9957500D01*
D12*
X10356000Y-4648000D02*
G75*
G03*
X10356000Y-4648000I-69000J0D01*
G01*
D10*
X10338000Y-4579000D02*
X10236000Y-4579000D01*
X10236000Y-4579000D02*
G75*
G03*
X10236000Y-4717000I0J-69000D01*
G01*
X10236000Y-4717000D02*
X10338000Y-4717000D01*
X10338000Y-4717000D02*
G75*
G03*
X10338000Y-4579000I0J69000D01*
G01*
D12*
X10356000Y-11938000D02*
G75*
G03*
X10356000Y-11938000I-69000J0D01*
G01*
D10*
X10338000Y-11869000D02*
X10236000Y-11869000D01*
X10236000Y-11869000D02*
G75*
G03*
X10236000Y-12007000I0J-69000D01*
G01*
X10236000Y-12007000D02*
X10338000Y-12007000D01*
X10338000Y-12007000D02*
G75*
G03*
X10338000Y-11869000I0J69000D01*
G01*
X9123219Y-14738524D02*
X9123219Y-14538524D01*
X9123219Y-14538524D02*
X9170838Y-14538524D01*
X9170838Y-14538524D02*
X9199410Y-14548048D01*
X9199410Y-14548048D02*
X9218457Y-14567095D01*
X9218457Y-14567095D02*
X9227981Y-14586143D01*
X9227981Y-14586143D02*
X9237505Y-14624238D01*
X9237505Y-14624238D02*
X9237505Y-14652809D01*
X9237505Y-14652809D02*
X9227981Y-14690905D01*
X9227981Y-14690905D02*
X9218457Y-14709952D01*
X9218457Y-14709952D02*
X9199410Y-14729000D01*
X9199410Y-14729000D02*
X9170838Y-14738524D01*
X9170838Y-14738524D02*
X9123219Y-14738524D01*
X9323219Y-14738524D02*
X9323219Y-14605190D01*
X9323219Y-14643286D02*
X9332743Y-14624238D01*
X9332743Y-14624238D02*
X9342267Y-14614714D01*
X9342267Y-14614714D02*
X9361314Y-14605190D01*
X9361314Y-14605190D02*
X9380362Y-14605190D01*
X9447029Y-14738524D02*
X9447029Y-14605190D01*
X9447029Y-14538524D02*
X9437505Y-14548048D01*
X9437505Y-14548048D02*
X9447029Y-14557571D01*
X9447029Y-14557571D02*
X9456552Y-14548048D01*
X9456552Y-14548048D02*
X9447029Y-14538524D01*
X9447029Y-14538524D02*
X9447029Y-14557571D01*
X9570838Y-14738524D02*
X9551790Y-14729000D01*
X9551790Y-14729000D02*
X9542267Y-14709952D01*
X9542267Y-14709952D02*
X9542267Y-14538524D01*
X9675600Y-14738524D02*
X9656552Y-14729000D01*
X9656552Y-14729000D02*
X9647029Y-14709952D01*
X9647029Y-14709952D02*
X9647029Y-14538524D01*
X9904171Y-14738524D02*
X9904171Y-14538524D01*
X9904171Y-14538524D02*
X9970838Y-14681381D01*
X9970838Y-14681381D02*
X10037505Y-14538524D01*
X10037505Y-14538524D02*
X10037505Y-14738524D01*
X10218457Y-14738524D02*
X10218457Y-14633762D01*
X10218457Y-14633762D02*
X10208933Y-14614714D01*
X10208933Y-14614714D02*
X10189886Y-14605190D01*
X10189886Y-14605190D02*
X10151790Y-14605190D01*
X10151790Y-14605190D02*
X10132743Y-14614714D01*
X10218457Y-14729000D02*
X10199410Y-14738524D01*
X10199410Y-14738524D02*
X10151790Y-14738524D01*
X10151790Y-14738524D02*
X10132743Y-14729000D01*
X10132743Y-14729000D02*
X10123219Y-14709952D01*
X10123219Y-14709952D02*
X10123219Y-14690905D01*
X10123219Y-14690905D02*
X10132743Y-14671857D01*
X10132743Y-14671857D02*
X10151790Y-14662333D01*
X10151790Y-14662333D02*
X10199410Y-14662333D01*
X10199410Y-14662333D02*
X10218457Y-14652809D01*
X10313695Y-14605190D02*
X10313695Y-14805190D01*
X10313695Y-14614714D02*
X10332743Y-14605190D01*
X10332743Y-14605190D02*
X10370838Y-14605190D01*
X10370838Y-14605190D02*
X10389886Y-14614714D01*
X10389886Y-14614714D02*
X10399410Y-14624238D01*
X10399410Y-14624238D02*
X10408933Y-14643286D01*
X10408933Y-14643286D02*
X10408933Y-14700428D01*
X10408933Y-14700428D02*
X10399410Y-14719476D01*
X10399410Y-14719476D02*
X10389886Y-14729000D01*
X10389886Y-14729000D02*
X10370838Y-14738524D01*
X10370838Y-14738524D02*
X10332743Y-14738524D01*
X10332743Y-14738524D02*
X10313695Y-14729000D01*
X10494648Y-14719476D02*
X10504171Y-14729000D01*
X10504171Y-14729000D02*
X10494648Y-14738524D01*
X10494648Y-14738524D02*
X10485124Y-14729000D01*
X10485124Y-14729000D02*
X10494648Y-14719476D01*
X10494648Y-14719476D02*
X10494648Y-14738524D01*
X10494648Y-14614714D02*
X10504171Y-14624238D01*
X10504171Y-14624238D02*
X10494648Y-14633762D01*
X10494648Y-14633762D02*
X10485124Y-14624238D01*
X10485124Y-14624238D02*
X10494648Y-14614714D01*
X10494648Y-14614714D02*
X10494648Y-14633762D01*
D11*
X8775600Y-15016000D02*
X8875600Y-15116000D01*
X8875600Y-15016000D02*
X8775600Y-15116000D01*
D10*
X9227981Y-15158524D02*
X9113695Y-15158524D01*
X9170838Y-15158524D02*
X9170838Y-14958524D01*
X9170838Y-14958524D02*
X9151790Y-14987095D01*
X9151790Y-14987095D02*
X9132743Y-15006143D01*
X9132743Y-15006143D02*
X9113695Y-15015667D01*
X9313695Y-15139476D02*
X9323219Y-15149000D01*
X9323219Y-15149000D02*
X9313695Y-15158524D01*
X9313695Y-15158524D02*
X9304171Y-15149000D01*
X9304171Y-15149000D02*
X9313695Y-15139476D01*
X9313695Y-15139476D02*
X9313695Y-15158524D01*
X9447029Y-14958524D02*
X9466076Y-14958524D01*
X9466076Y-14958524D02*
X9485124Y-14968048D01*
X9485124Y-14968048D02*
X9494648Y-14977571D01*
X9494648Y-14977571D02*
X9504171Y-14996619D01*
X9504171Y-14996619D02*
X9513695Y-15034714D01*
X9513695Y-15034714D02*
X9513695Y-15082333D01*
X9513695Y-15082333D02*
X9504171Y-15120428D01*
X9504171Y-15120428D02*
X9494648Y-15139476D01*
X9494648Y-15139476D02*
X9485124Y-15149000D01*
X9485124Y-15149000D02*
X9466076Y-15158524D01*
X9466076Y-15158524D02*
X9447029Y-15158524D01*
X9447029Y-15158524D02*
X9427981Y-15149000D01*
X9427981Y-15149000D02*
X9418457Y-15139476D01*
X9418457Y-15139476D02*
X9408933Y-15120428D01*
X9408933Y-15120428D02*
X9399410Y-15082333D01*
X9399410Y-15082333D02*
X9399410Y-15034714D01*
X9399410Y-15034714D02*
X9408933Y-14996619D01*
X9408933Y-14996619D02*
X9418457Y-14977571D01*
X9418457Y-14977571D02*
X9427981Y-14968048D01*
X9427981Y-14968048D02*
X9447029Y-14958524D01*
X9637505Y-14958524D02*
X9656552Y-14958524D01*
X9656552Y-14958524D02*
X9675600Y-14968048D01*
X9675600Y-14968048D02*
X9685124Y-14977571D01*
X9685124Y-14977571D02*
X9694648Y-14996619D01*
X9694648Y-14996619D02*
X9704171Y-15034714D01*
X9704171Y-15034714D02*
X9704171Y-15082333D01*
X9704171Y-15082333D02*
X9694648Y-15120428D01*
X9694648Y-15120428D02*
X9685124Y-15139476D01*
X9685124Y-15139476D02*
X9675600Y-15149000D01*
X9675600Y-15149000D02*
X9656552Y-15158524D01*
X9656552Y-15158524D02*
X9637505Y-15158524D01*
X9637505Y-15158524D02*
X9618457Y-15149000D01*
X9618457Y-15149000D02*
X9608933Y-15139476D01*
X9608933Y-15139476D02*
X9599410Y-15120428D01*
X9599410Y-15120428D02*
X9589886Y-15082333D01*
X9589886Y-15082333D02*
X9589886Y-15034714D01*
X9589886Y-15034714D02*
X9599410Y-14996619D01*
X9599410Y-14996619D02*
X9608933Y-14977571D01*
X9608933Y-14977571D02*
X9618457Y-14968048D01*
X9618457Y-14968048D02*
X9637505Y-14958524D01*
X9827981Y-14958524D02*
X9847029Y-14958524D01*
X9847029Y-14958524D02*
X9866076Y-14968048D01*
X9866076Y-14968048D02*
X9875600Y-14977571D01*
X9875600Y-14977571D02*
X9885124Y-14996619D01*
X9885124Y-14996619D02*
X9894648Y-15034714D01*
X9894648Y-15034714D02*
X9894648Y-15082333D01*
X9894648Y-15082333D02*
X9885124Y-15120428D01*
X9885124Y-15120428D02*
X9875600Y-15139476D01*
X9875600Y-15139476D02*
X9866076Y-15149000D01*
X9866076Y-15149000D02*
X9847029Y-15158524D01*
X9847029Y-15158524D02*
X9827981Y-15158524D01*
X9827981Y-15158524D02*
X9808933Y-15149000D01*
X9808933Y-15149000D02*
X9799410Y-15139476D01*
X9799410Y-15139476D02*
X9789886Y-15120428D01*
X9789886Y-15120428D02*
X9780362Y-15082333D01*
X9780362Y-15082333D02*
X9780362Y-15034714D01*
X9780362Y-15034714D02*
X9789886Y-14996619D01*
X9789886Y-14996619D02*
X9799410Y-14977571D01*
X9799410Y-14977571D02*
X9808933Y-14968048D01*
X9808933Y-14968048D02*
X9827981Y-14958524D01*
X9980362Y-15158524D02*
X9980362Y-15025190D01*
X9980362Y-15044238D02*
X9989886Y-15034714D01*
X9989886Y-15034714D02*
X10008933Y-15025190D01*
X10008933Y-15025190D02*
X10037505Y-15025190D01*
X10037505Y-15025190D02*
X10056552Y-15034714D01*
X10056552Y-15034714D02*
X10066076Y-15053762D01*
X10066076Y-15053762D02*
X10066076Y-15158524D01*
X10066076Y-15053762D02*
X10075600Y-15034714D01*
X10075600Y-15034714D02*
X10094648Y-15025190D01*
X10094648Y-15025190D02*
X10123219Y-15025190D01*
X10123219Y-15025190D02*
X10142267Y-15034714D01*
X10142267Y-15034714D02*
X10151791Y-15053762D01*
X10151791Y-15053762D02*
X10151791Y-15158524D01*
X10247029Y-15158524D02*
X10247029Y-15025190D01*
X10247029Y-15044238D02*
X10256552Y-15034714D01*
X10256552Y-15034714D02*
X10275600Y-15025190D01*
X10275600Y-15025190D02*
X10304172Y-15025190D01*
X10304172Y-15025190D02*
X10323219Y-15034714D01*
X10323219Y-15034714D02*
X10332743Y-15053762D01*
X10332743Y-15053762D02*
X10332743Y-15158524D01*
X10332743Y-15053762D02*
X10342267Y-15034714D01*
X10342267Y-15034714D02*
X10361314Y-15025190D01*
X10361314Y-15025190D02*
X10389886Y-15025190D01*
X10389886Y-15025190D02*
X10408933Y-15034714D01*
X10408933Y-15034714D02*
X10418457Y-15053762D01*
X10418457Y-15053762D02*
X10418457Y-15158524D01*
X10808933Y-14949000D02*
X10637505Y-15206143D01*
X11066076Y-14958524D02*
X11085124Y-14958524D01*
X11085124Y-14958524D02*
X11104172Y-14968048D01*
X11104172Y-14968048D02*
X11113695Y-14977571D01*
X11113695Y-14977571D02*
X11123219Y-14996619D01*
X11123219Y-14996619D02*
X11132743Y-15034714D01*
X11132743Y-15034714D02*
X11132743Y-15082333D01*
X11132743Y-15082333D02*
X11123219Y-15120428D01*
X11123219Y-15120428D02*
X11113695Y-15139476D01*
X11113695Y-15139476D02*
X11104172Y-15149000D01*
X11104172Y-15149000D02*
X11085124Y-15158524D01*
X11085124Y-15158524D02*
X11066076Y-15158524D01*
X11066076Y-15158524D02*
X11047029Y-15149000D01*
X11047029Y-15149000D02*
X11037505Y-15139476D01*
X11037505Y-15139476D02*
X11027981Y-15120428D01*
X11027981Y-15120428D02*
X11018457Y-15082333D01*
X11018457Y-15082333D02*
X11018457Y-15034714D01*
X11018457Y-15034714D02*
X11027981Y-14996619D01*
X11027981Y-14996619D02*
X11037505Y-14977571D01*
X11037505Y-14977571D02*
X11047029Y-14968048D01*
X11047029Y-14968048D02*
X11066076Y-14958524D01*
X11218457Y-15139476D02*
X11227981Y-15149000D01*
X11227981Y-15149000D02*
X11218457Y-15158524D01*
X11218457Y-15158524D02*
X11208933Y-15149000D01*
X11208933Y-15149000D02*
X11218457Y-15139476D01*
X11218457Y-15139476D02*
X11218457Y-15158524D01*
X11351791Y-14958524D02*
X11370838Y-14958524D01*
X11370838Y-14958524D02*
X11389886Y-14968048D01*
X11389886Y-14968048D02*
X11399410Y-14977571D01*
X11399410Y-14977571D02*
X11408933Y-14996619D01*
X11408933Y-14996619D02*
X11418457Y-15034714D01*
X11418457Y-15034714D02*
X11418457Y-15082333D01*
X11418457Y-15082333D02*
X11408933Y-15120428D01*
X11408933Y-15120428D02*
X11399410Y-15139476D01*
X11399410Y-15139476D02*
X11389886Y-15149000D01*
X11389886Y-15149000D02*
X11370838Y-15158524D01*
X11370838Y-15158524D02*
X11351791Y-15158524D01*
X11351791Y-15158524D02*
X11332743Y-15149000D01*
X11332743Y-15149000D02*
X11323219Y-15139476D01*
X11323219Y-15139476D02*
X11313695Y-15120428D01*
X11313695Y-15120428D02*
X11304172Y-15082333D01*
X11304172Y-15082333D02*
X11304172Y-15034714D01*
X11304172Y-15034714D02*
X11313695Y-14996619D01*
X11313695Y-14996619D02*
X11323219Y-14977571D01*
X11323219Y-14977571D02*
X11332743Y-14968048D01*
X11332743Y-14968048D02*
X11351791Y-14958524D01*
X11485124Y-14958524D02*
X11608933Y-14958524D01*
X11608933Y-14958524D02*
X11542267Y-15034714D01*
X11542267Y-15034714D02*
X11570838Y-15034714D01*
X11570838Y-15034714D02*
X11589886Y-15044238D01*
X11589886Y-15044238D02*
X11599410Y-15053762D01*
X11599410Y-15053762D02*
X11608933Y-15072809D01*
X11608933Y-15072809D02*
X11608933Y-15120428D01*
X11608933Y-15120428D02*
X11599410Y-15139476D01*
X11599410Y-15139476D02*
X11589886Y-15149000D01*
X11589886Y-15149000D02*
X11570838Y-15158524D01*
X11570838Y-15158524D02*
X11513695Y-15158524D01*
X11513695Y-15158524D02*
X11494648Y-15149000D01*
X11494648Y-15149000D02*
X11485124Y-15139476D01*
X11704172Y-15158524D02*
X11742267Y-15158524D01*
X11742267Y-15158524D02*
X11761314Y-15149000D01*
X11761314Y-15149000D02*
X11770838Y-15139476D01*
X11770838Y-15139476D02*
X11789886Y-15110905D01*
X11789886Y-15110905D02*
X11799410Y-15072809D01*
X11799410Y-15072809D02*
X11799410Y-14996619D01*
X11799410Y-14996619D02*
X11789886Y-14977571D01*
X11789886Y-14977571D02*
X11780362Y-14968048D01*
X11780362Y-14968048D02*
X11761314Y-14958524D01*
X11761314Y-14958524D02*
X11723219Y-14958524D01*
X11723219Y-14958524D02*
X11704172Y-14968048D01*
X11704172Y-14968048D02*
X11694648Y-14977571D01*
X11694648Y-14977571D02*
X11685124Y-14996619D01*
X11685124Y-14996619D02*
X11685124Y-15044238D01*
X11685124Y-15044238D02*
X11694648Y-15063286D01*
X11694648Y-15063286D02*
X11704172Y-15072809D01*
X11704172Y-15072809D02*
X11723219Y-15082333D01*
X11723219Y-15082333D02*
X11761314Y-15082333D01*
X11761314Y-15082333D02*
X11780362Y-15072809D01*
X11780362Y-15072809D02*
X11789886Y-15063286D01*
X11789886Y-15063286D02*
X11799410Y-15044238D01*
X11970838Y-15025190D02*
X11970838Y-15158524D01*
X11923219Y-14949000D02*
X11875600Y-15091857D01*
X11875600Y-15091857D02*
X11999410Y-15091857D01*
X12066076Y-14958524D02*
X12066076Y-14996619D01*
X12142267Y-14958524D02*
X12142267Y-14996619D01*
X12437505Y-15234714D02*
X12427981Y-15225190D01*
X12427981Y-15225190D02*
X12408934Y-15196619D01*
X12408934Y-15196619D02*
X12399410Y-15177571D01*
X12399410Y-15177571D02*
X12389886Y-15149000D01*
X12389886Y-15149000D02*
X12380362Y-15101381D01*
X12380362Y-15101381D02*
X12380362Y-15063286D01*
X12380362Y-15063286D02*
X12389886Y-15015667D01*
X12389886Y-15015667D02*
X12399410Y-14987095D01*
X12399410Y-14987095D02*
X12408934Y-14968048D01*
X12408934Y-14968048D02*
X12427981Y-14939476D01*
X12427981Y-14939476D02*
X12437505Y-14929952D01*
X12504172Y-14977571D02*
X12513695Y-14968048D01*
X12513695Y-14968048D02*
X12532743Y-14958524D01*
X12532743Y-14958524D02*
X12580362Y-14958524D01*
X12580362Y-14958524D02*
X12599410Y-14968048D01*
X12599410Y-14968048D02*
X12608934Y-14977571D01*
X12608934Y-14977571D02*
X12618457Y-14996619D01*
X12618457Y-14996619D02*
X12618457Y-15015667D01*
X12618457Y-15015667D02*
X12608934Y-15044238D01*
X12608934Y-15044238D02*
X12494648Y-15158524D01*
X12494648Y-15158524D02*
X12618457Y-15158524D01*
X12789886Y-14958524D02*
X12751791Y-14958524D01*
X12751791Y-14958524D02*
X12732743Y-14968048D01*
X12732743Y-14968048D02*
X12723219Y-14977571D01*
X12723219Y-14977571D02*
X12704172Y-15006143D01*
X12704172Y-15006143D02*
X12694648Y-15044238D01*
X12694648Y-15044238D02*
X12694648Y-15120428D01*
X12694648Y-15120428D02*
X12704172Y-15139476D01*
X12704172Y-15139476D02*
X12713695Y-15149000D01*
X12713695Y-15149000D02*
X12732743Y-15158524D01*
X12732743Y-15158524D02*
X12770838Y-15158524D01*
X12770838Y-15158524D02*
X12789886Y-15149000D01*
X12789886Y-15149000D02*
X12799410Y-15139476D01*
X12799410Y-15139476D02*
X12808934Y-15120428D01*
X12808934Y-15120428D02*
X12808934Y-15072809D01*
X12808934Y-15072809D02*
X12799410Y-15053762D01*
X12799410Y-15053762D02*
X12789886Y-15044238D01*
X12789886Y-15044238D02*
X12770838Y-15034714D01*
X12770838Y-15034714D02*
X12732743Y-15034714D01*
X12732743Y-15034714D02*
X12713695Y-15044238D01*
X12713695Y-15044238D02*
X12704172Y-15053762D01*
X12704172Y-15053762D02*
X12694648Y-15072809D01*
X13047029Y-15158524D02*
X13047029Y-14958524D01*
X13132743Y-15158524D02*
X13132743Y-15053762D01*
X13132743Y-15053762D02*
X13123219Y-15034714D01*
X13123219Y-15034714D02*
X13104172Y-15025190D01*
X13104172Y-15025190D02*
X13075600Y-15025190D01*
X13075600Y-15025190D02*
X13056553Y-15034714D01*
X13056553Y-15034714D02*
X13047029Y-15044238D01*
X13256553Y-15158524D02*
X13237505Y-15149000D01*
X13237505Y-15149000D02*
X13227981Y-15139476D01*
X13227981Y-15139476D02*
X13218457Y-15120428D01*
X13218457Y-15120428D02*
X13218457Y-15063286D01*
X13218457Y-15063286D02*
X13227981Y-15044238D01*
X13227981Y-15044238D02*
X13237505Y-15034714D01*
X13237505Y-15034714D02*
X13256553Y-15025190D01*
X13256553Y-15025190D02*
X13285124Y-15025190D01*
X13285124Y-15025190D02*
X13304172Y-15034714D01*
X13304172Y-15034714D02*
X13313696Y-15044238D01*
X13313696Y-15044238D02*
X13323219Y-15063286D01*
X13323219Y-15063286D02*
X13323219Y-15120428D01*
X13323219Y-15120428D02*
X13313696Y-15139476D01*
X13313696Y-15139476D02*
X13304172Y-15149000D01*
X13304172Y-15149000D02*
X13285124Y-15158524D01*
X13285124Y-15158524D02*
X13256553Y-15158524D01*
X13437505Y-15158524D02*
X13418457Y-15149000D01*
X13418457Y-15149000D02*
X13408934Y-15129952D01*
X13408934Y-15129952D02*
X13408934Y-14958524D01*
X13589886Y-15149000D02*
X13570838Y-15158524D01*
X13570838Y-15158524D02*
X13532743Y-15158524D01*
X13532743Y-15158524D02*
X13513696Y-15149000D01*
X13513696Y-15149000D02*
X13504172Y-15129952D01*
X13504172Y-15129952D02*
X13504172Y-15053762D01*
X13504172Y-15053762D02*
X13513696Y-15034714D01*
X13513696Y-15034714D02*
X13532743Y-15025190D01*
X13532743Y-15025190D02*
X13570838Y-15025190D01*
X13570838Y-15025190D02*
X13589886Y-15034714D01*
X13589886Y-15034714D02*
X13599410Y-15053762D01*
X13599410Y-15053762D02*
X13599410Y-15072809D01*
X13599410Y-15072809D02*
X13504172Y-15091857D01*
X13675600Y-15149000D02*
X13694648Y-15158524D01*
X13694648Y-15158524D02*
X13732743Y-15158524D01*
X13732743Y-15158524D02*
X13751791Y-15149000D01*
X13751791Y-15149000D02*
X13761315Y-15129952D01*
X13761315Y-15129952D02*
X13761315Y-15120428D01*
X13761315Y-15120428D02*
X13751791Y-15101381D01*
X13751791Y-15101381D02*
X13732743Y-15091857D01*
X13732743Y-15091857D02*
X13704172Y-15091857D01*
X13704172Y-15091857D02*
X13685124Y-15082333D01*
X13685124Y-15082333D02*
X13675600Y-15063286D01*
X13675600Y-15063286D02*
X13675600Y-15053762D01*
X13675600Y-15053762D02*
X13685124Y-15034714D01*
X13685124Y-15034714D02*
X13704172Y-15025190D01*
X13704172Y-15025190D02*
X13732743Y-15025190D01*
X13732743Y-15025190D02*
X13751791Y-15034714D01*
X13827981Y-15234714D02*
X13837505Y-15225190D01*
X13837505Y-15225190D02*
X13856553Y-15196619D01*
X13856553Y-15196619D02*
X13866077Y-15177571D01*
X13866077Y-15177571D02*
X13875600Y-15149000D01*
X13875600Y-15149000D02*
X13885124Y-15101381D01*
X13885124Y-15101381D02*
X13885124Y-15063286D01*
X13885124Y-15063286D02*
X13875600Y-15015667D01*
X13875600Y-15015667D02*
X13866077Y-14987095D01*
X13866077Y-14987095D02*
X13856553Y-14968048D01*
X13856553Y-14968048D02*
X13837505Y-14939476D01*
X13837505Y-14939476D02*
X13827981Y-14929952D01*
D12*
X8875600Y-15330000D02*
G75*
G03*
X8875600Y-15330000I-69000J0D01*
G01*
D10*
X9227981Y-15422524D02*
X9113695Y-15422524D01*
X9170838Y-15422524D02*
X9170838Y-15222524D01*
X9170838Y-15222524D02*
X9151790Y-15251095D01*
X9151790Y-15251095D02*
X9132743Y-15270143D01*
X9132743Y-15270143D02*
X9113695Y-15279667D01*
X9313695Y-15403476D02*
X9323219Y-15413000D01*
X9323219Y-15413000D02*
X9313695Y-15422524D01*
X9313695Y-15422524D02*
X9304171Y-15413000D01*
X9304171Y-15413000D02*
X9313695Y-15403476D01*
X9313695Y-15403476D02*
X9313695Y-15422524D01*
X9389886Y-15222524D02*
X9513695Y-15222524D01*
X9513695Y-15222524D02*
X9447029Y-15298714D01*
X9447029Y-15298714D02*
X9475600Y-15298714D01*
X9475600Y-15298714D02*
X9494648Y-15308238D01*
X9494648Y-15308238D02*
X9504171Y-15317762D01*
X9504171Y-15317762D02*
X9513695Y-15336809D01*
X9513695Y-15336809D02*
X9513695Y-15384428D01*
X9513695Y-15384428D02*
X9504171Y-15403476D01*
X9504171Y-15403476D02*
X9494648Y-15413000D01*
X9494648Y-15413000D02*
X9475600Y-15422524D01*
X9475600Y-15422524D02*
X9418457Y-15422524D01*
X9418457Y-15422524D02*
X9399410Y-15413000D01*
X9399410Y-15413000D02*
X9389886Y-15403476D01*
X9627981Y-15308238D02*
X9608933Y-15298714D01*
X9608933Y-15298714D02*
X9599410Y-15289190D01*
X9599410Y-15289190D02*
X9589886Y-15270143D01*
X9589886Y-15270143D02*
X9589886Y-15260619D01*
X9589886Y-15260619D02*
X9599410Y-15241571D01*
X9599410Y-15241571D02*
X9608933Y-15232048D01*
X9608933Y-15232048D02*
X9627981Y-15222524D01*
X9627981Y-15222524D02*
X9666076Y-15222524D01*
X9666076Y-15222524D02*
X9685124Y-15232048D01*
X9685124Y-15232048D02*
X9694648Y-15241571D01*
X9694648Y-15241571D02*
X9704171Y-15260619D01*
X9704171Y-15260619D02*
X9704171Y-15270143D01*
X9704171Y-15270143D02*
X9694648Y-15289190D01*
X9694648Y-15289190D02*
X9685124Y-15298714D01*
X9685124Y-15298714D02*
X9666076Y-15308238D01*
X9666076Y-15308238D02*
X9627981Y-15308238D01*
X9627981Y-15308238D02*
X9608933Y-15317762D01*
X9608933Y-15317762D02*
X9599410Y-15327286D01*
X9599410Y-15327286D02*
X9589886Y-15346333D01*
X9589886Y-15346333D02*
X9589886Y-15384428D01*
X9589886Y-15384428D02*
X9599410Y-15403476D01*
X9599410Y-15403476D02*
X9608933Y-15413000D01*
X9608933Y-15413000D02*
X9627981Y-15422524D01*
X9627981Y-15422524D02*
X9666076Y-15422524D01*
X9666076Y-15422524D02*
X9685124Y-15413000D01*
X9685124Y-15413000D02*
X9694648Y-15403476D01*
X9694648Y-15403476D02*
X9704171Y-15384428D01*
X9704171Y-15384428D02*
X9704171Y-15346333D01*
X9704171Y-15346333D02*
X9694648Y-15327286D01*
X9694648Y-15327286D02*
X9685124Y-15317762D01*
X9685124Y-15317762D02*
X9666076Y-15308238D01*
X9827981Y-15222524D02*
X9847029Y-15222524D01*
X9847029Y-15222524D02*
X9866076Y-15232048D01*
X9866076Y-15232048D02*
X9875600Y-15241571D01*
X9875600Y-15241571D02*
X9885124Y-15260619D01*
X9885124Y-15260619D02*
X9894648Y-15298714D01*
X9894648Y-15298714D02*
X9894648Y-15346333D01*
X9894648Y-15346333D02*
X9885124Y-15384428D01*
X9885124Y-15384428D02*
X9875600Y-15403476D01*
X9875600Y-15403476D02*
X9866076Y-15413000D01*
X9866076Y-15413000D02*
X9847029Y-15422524D01*
X9847029Y-15422524D02*
X9827981Y-15422524D01*
X9827981Y-15422524D02*
X9808933Y-15413000D01*
X9808933Y-15413000D02*
X9799410Y-15403476D01*
X9799410Y-15403476D02*
X9789886Y-15384428D01*
X9789886Y-15384428D02*
X9780362Y-15346333D01*
X9780362Y-15346333D02*
X9780362Y-15298714D01*
X9780362Y-15298714D02*
X9789886Y-15260619D01*
X9789886Y-15260619D02*
X9799410Y-15241571D01*
X9799410Y-15241571D02*
X9808933Y-15232048D01*
X9808933Y-15232048D02*
X9827981Y-15222524D01*
X9980362Y-15422524D02*
X9980362Y-15289190D01*
X9980362Y-15308238D02*
X9989886Y-15298714D01*
X9989886Y-15298714D02*
X10008933Y-15289190D01*
X10008933Y-15289190D02*
X10037505Y-15289190D01*
X10037505Y-15289190D02*
X10056552Y-15298714D01*
X10056552Y-15298714D02*
X10066076Y-15317762D01*
X10066076Y-15317762D02*
X10066076Y-15422524D01*
X10066076Y-15317762D02*
X10075600Y-15298714D01*
X10075600Y-15298714D02*
X10094648Y-15289190D01*
X10094648Y-15289190D02*
X10123219Y-15289190D01*
X10123219Y-15289190D02*
X10142267Y-15298714D01*
X10142267Y-15298714D02*
X10151791Y-15317762D01*
X10151791Y-15317762D02*
X10151791Y-15422524D01*
X10247029Y-15422524D02*
X10247029Y-15289190D01*
X10247029Y-15308238D02*
X10256552Y-15298714D01*
X10256552Y-15298714D02*
X10275600Y-15289190D01*
X10275600Y-15289190D02*
X10304172Y-15289190D01*
X10304172Y-15289190D02*
X10323219Y-15298714D01*
X10323219Y-15298714D02*
X10332743Y-15317762D01*
X10332743Y-15317762D02*
X10332743Y-15422524D01*
X10332743Y-15317762D02*
X10342267Y-15298714D01*
X10342267Y-15298714D02*
X10361314Y-15289190D01*
X10361314Y-15289190D02*
X10389886Y-15289190D01*
X10389886Y-15289190D02*
X10408933Y-15298714D01*
X10408933Y-15298714D02*
X10418457Y-15317762D01*
X10418457Y-15317762D02*
X10418457Y-15422524D01*
X10808933Y-15213000D02*
X10637505Y-15470143D01*
X11066076Y-15222524D02*
X11085124Y-15222524D01*
X11085124Y-15222524D02*
X11104172Y-15232048D01*
X11104172Y-15232048D02*
X11113695Y-15241571D01*
X11113695Y-15241571D02*
X11123219Y-15260619D01*
X11123219Y-15260619D02*
X11132743Y-15298714D01*
X11132743Y-15298714D02*
X11132743Y-15346333D01*
X11132743Y-15346333D02*
X11123219Y-15384428D01*
X11123219Y-15384428D02*
X11113695Y-15403476D01*
X11113695Y-15403476D02*
X11104172Y-15413000D01*
X11104172Y-15413000D02*
X11085124Y-15422524D01*
X11085124Y-15422524D02*
X11066076Y-15422524D01*
X11066076Y-15422524D02*
X11047029Y-15413000D01*
X11047029Y-15413000D02*
X11037505Y-15403476D01*
X11037505Y-15403476D02*
X11027981Y-15384428D01*
X11027981Y-15384428D02*
X11018457Y-15346333D01*
X11018457Y-15346333D02*
X11018457Y-15298714D01*
X11018457Y-15298714D02*
X11027981Y-15260619D01*
X11027981Y-15260619D02*
X11037505Y-15241571D01*
X11037505Y-15241571D02*
X11047029Y-15232048D01*
X11047029Y-15232048D02*
X11066076Y-15222524D01*
X11218457Y-15403476D02*
X11227981Y-15413000D01*
X11227981Y-15413000D02*
X11218457Y-15422524D01*
X11218457Y-15422524D02*
X11208933Y-15413000D01*
X11208933Y-15413000D02*
X11218457Y-15403476D01*
X11218457Y-15403476D02*
X11218457Y-15422524D01*
X11351791Y-15222524D02*
X11370838Y-15222524D01*
X11370838Y-15222524D02*
X11389886Y-15232048D01*
X11389886Y-15232048D02*
X11399410Y-15241571D01*
X11399410Y-15241571D02*
X11408933Y-15260619D01*
X11408933Y-15260619D02*
X11418457Y-15298714D01*
X11418457Y-15298714D02*
X11418457Y-15346333D01*
X11418457Y-15346333D02*
X11408933Y-15384428D01*
X11408933Y-15384428D02*
X11399410Y-15403476D01*
X11399410Y-15403476D02*
X11389886Y-15413000D01*
X11389886Y-15413000D02*
X11370838Y-15422524D01*
X11370838Y-15422524D02*
X11351791Y-15422524D01*
X11351791Y-15422524D02*
X11332743Y-15413000D01*
X11332743Y-15413000D02*
X11323219Y-15403476D01*
X11323219Y-15403476D02*
X11313695Y-15384428D01*
X11313695Y-15384428D02*
X11304172Y-15346333D01*
X11304172Y-15346333D02*
X11304172Y-15298714D01*
X11304172Y-15298714D02*
X11313695Y-15260619D01*
X11313695Y-15260619D02*
X11323219Y-15241571D01*
X11323219Y-15241571D02*
X11332743Y-15232048D01*
X11332743Y-15232048D02*
X11351791Y-15222524D01*
X11599410Y-15222524D02*
X11504172Y-15222524D01*
X11504172Y-15222524D02*
X11494648Y-15317762D01*
X11494648Y-15317762D02*
X11504172Y-15308238D01*
X11504172Y-15308238D02*
X11523219Y-15298714D01*
X11523219Y-15298714D02*
X11570838Y-15298714D01*
X11570838Y-15298714D02*
X11589886Y-15308238D01*
X11589886Y-15308238D02*
X11599410Y-15317762D01*
X11599410Y-15317762D02*
X11608933Y-15336809D01*
X11608933Y-15336809D02*
X11608933Y-15384428D01*
X11608933Y-15384428D02*
X11599410Y-15403476D01*
X11599410Y-15403476D02*
X11589886Y-15413000D01*
X11589886Y-15413000D02*
X11570838Y-15422524D01*
X11570838Y-15422524D02*
X11523219Y-15422524D01*
X11523219Y-15422524D02*
X11504172Y-15413000D01*
X11504172Y-15413000D02*
X11494648Y-15403476D01*
X11780362Y-15289190D02*
X11780362Y-15422524D01*
X11732743Y-15213000D02*
X11685124Y-15355857D01*
X11685124Y-15355857D02*
X11808933Y-15355857D01*
X11866076Y-15222524D02*
X11989886Y-15222524D01*
X11989886Y-15222524D02*
X11923219Y-15298714D01*
X11923219Y-15298714D02*
X11951791Y-15298714D01*
X11951791Y-15298714D02*
X11970838Y-15308238D01*
X11970838Y-15308238D02*
X11980362Y-15317762D01*
X11980362Y-15317762D02*
X11989886Y-15336809D01*
X11989886Y-15336809D02*
X11989886Y-15384428D01*
X11989886Y-15384428D02*
X11980362Y-15403476D01*
X11980362Y-15403476D02*
X11970838Y-15413000D01*
X11970838Y-15413000D02*
X11951791Y-15422524D01*
X11951791Y-15422524D02*
X11894648Y-15422524D01*
X11894648Y-15422524D02*
X11875600Y-15413000D01*
X11875600Y-15413000D02*
X11866076Y-15403476D01*
X12066076Y-15222524D02*
X12066076Y-15260619D01*
X12142267Y-15222524D02*
X12142267Y-15260619D01*
X12437505Y-15498714D02*
X12427981Y-15489190D01*
X12427981Y-15489190D02*
X12408934Y-15460619D01*
X12408934Y-15460619D02*
X12399410Y-15441571D01*
X12399410Y-15441571D02*
X12389886Y-15413000D01*
X12389886Y-15413000D02*
X12380362Y-15365381D01*
X12380362Y-15365381D02*
X12380362Y-15327286D01*
X12380362Y-15327286D02*
X12389886Y-15279667D01*
X12389886Y-15279667D02*
X12399410Y-15251095D01*
X12399410Y-15251095D02*
X12408934Y-15232048D01*
X12408934Y-15232048D02*
X12427981Y-15203476D01*
X12427981Y-15203476D02*
X12437505Y-15193952D01*
X12551791Y-15222524D02*
X12570838Y-15222524D01*
X12570838Y-15222524D02*
X12589886Y-15232048D01*
X12589886Y-15232048D02*
X12599410Y-15241571D01*
X12599410Y-15241571D02*
X12608934Y-15260619D01*
X12608934Y-15260619D02*
X12618457Y-15298714D01*
X12618457Y-15298714D02*
X12618457Y-15346333D01*
X12618457Y-15346333D02*
X12608934Y-15384428D01*
X12608934Y-15384428D02*
X12599410Y-15403476D01*
X12599410Y-15403476D02*
X12589886Y-15413000D01*
X12589886Y-15413000D02*
X12570838Y-15422524D01*
X12570838Y-15422524D02*
X12551791Y-15422524D01*
X12551791Y-15422524D02*
X12532743Y-15413000D01*
X12532743Y-15413000D02*
X12523219Y-15403476D01*
X12523219Y-15403476D02*
X12513695Y-15384428D01*
X12513695Y-15384428D02*
X12504172Y-15346333D01*
X12504172Y-15346333D02*
X12504172Y-15298714D01*
X12504172Y-15298714D02*
X12513695Y-15260619D01*
X12513695Y-15260619D02*
X12523219Y-15241571D01*
X12523219Y-15241571D02*
X12532743Y-15232048D01*
X12532743Y-15232048D02*
X12551791Y-15222524D01*
X12856553Y-15422524D02*
X12856553Y-15222524D01*
X12942267Y-15422524D02*
X12942267Y-15317762D01*
X12942267Y-15317762D02*
X12932743Y-15298714D01*
X12932743Y-15298714D02*
X12913696Y-15289190D01*
X12913696Y-15289190D02*
X12885124Y-15289190D01*
X12885124Y-15289190D02*
X12866076Y-15298714D01*
X12866076Y-15298714D02*
X12856553Y-15308238D01*
X13066076Y-15422524D02*
X13047029Y-15413000D01*
X13047029Y-15413000D02*
X13037505Y-15403476D01*
X13037505Y-15403476D02*
X13027981Y-15384428D01*
X13027981Y-15384428D02*
X13027981Y-15327286D01*
X13027981Y-15327286D02*
X13037505Y-15308238D01*
X13037505Y-15308238D02*
X13047029Y-15298714D01*
X13047029Y-15298714D02*
X13066076Y-15289190D01*
X13066076Y-15289190D02*
X13094648Y-15289190D01*
X13094648Y-15289190D02*
X13113696Y-15298714D01*
X13113696Y-15298714D02*
X13123219Y-15308238D01*
X13123219Y-15308238D02*
X13132743Y-15327286D01*
X13132743Y-15327286D02*
X13132743Y-15384428D01*
X13132743Y-15384428D02*
X13123219Y-15403476D01*
X13123219Y-15403476D02*
X13113696Y-15413000D01*
X13113696Y-15413000D02*
X13094648Y-15422524D01*
X13094648Y-15422524D02*
X13066076Y-15422524D01*
X13247029Y-15422524D02*
X13227981Y-15413000D01*
X13227981Y-15413000D02*
X13218457Y-15393952D01*
X13218457Y-15393952D02*
X13218457Y-15222524D01*
X13399410Y-15413000D02*
X13380362Y-15422524D01*
X13380362Y-15422524D02*
X13342267Y-15422524D01*
X13342267Y-15422524D02*
X13323219Y-15413000D01*
X13323219Y-15413000D02*
X13313696Y-15393952D01*
X13313696Y-15393952D02*
X13313696Y-15317762D01*
X13313696Y-15317762D02*
X13323219Y-15298714D01*
X13323219Y-15298714D02*
X13342267Y-15289190D01*
X13342267Y-15289190D02*
X13380362Y-15289190D01*
X13380362Y-15289190D02*
X13399410Y-15298714D01*
X13399410Y-15298714D02*
X13408934Y-15317762D01*
X13408934Y-15317762D02*
X13408934Y-15336809D01*
X13408934Y-15336809D02*
X13313696Y-15355857D01*
X13485124Y-15413000D02*
X13504172Y-15422524D01*
X13504172Y-15422524D02*
X13542267Y-15422524D01*
X13542267Y-15422524D02*
X13561315Y-15413000D01*
X13561315Y-15413000D02*
X13570838Y-15393952D01*
X13570838Y-15393952D02*
X13570838Y-15384428D01*
X13570838Y-15384428D02*
X13561315Y-15365381D01*
X13561315Y-15365381D02*
X13542267Y-15355857D01*
X13542267Y-15355857D02*
X13513696Y-15355857D01*
X13513696Y-15355857D02*
X13494648Y-15346333D01*
X13494648Y-15346333D02*
X13485124Y-15327286D01*
X13485124Y-15327286D02*
X13485124Y-15317762D01*
X13485124Y-15317762D02*
X13494648Y-15298714D01*
X13494648Y-15298714D02*
X13513696Y-15289190D01*
X13513696Y-15289190D02*
X13542267Y-15289190D01*
X13542267Y-15289190D02*
X13561315Y-15298714D01*
X13808934Y-15346333D02*
X13961315Y-15346333D01*
X13885124Y-15422524D02*
X13885124Y-15270143D01*
X14199410Y-15241571D02*
X14208934Y-15232048D01*
X14208934Y-15232048D02*
X14227981Y-15222524D01*
X14227981Y-15222524D02*
X14275600Y-15222524D01*
X14275600Y-15222524D02*
X14294648Y-15232048D01*
X14294648Y-15232048D02*
X14304172Y-15241571D01*
X14304172Y-15241571D02*
X14313696Y-15260619D01*
X14313696Y-15260619D02*
X14313696Y-15279667D01*
X14313696Y-15279667D02*
X14304172Y-15308238D01*
X14304172Y-15308238D02*
X14189886Y-15422524D01*
X14189886Y-15422524D02*
X14313696Y-15422524D01*
X14542267Y-15413000D02*
X14561315Y-15422524D01*
X14561315Y-15422524D02*
X14599410Y-15422524D01*
X14599410Y-15422524D02*
X14618458Y-15413000D01*
X14618458Y-15413000D02*
X14627981Y-15393952D01*
X14627981Y-15393952D02*
X14627981Y-15384428D01*
X14627981Y-15384428D02*
X14618458Y-15365381D01*
X14618458Y-15365381D02*
X14599410Y-15355857D01*
X14599410Y-15355857D02*
X14570839Y-15355857D01*
X14570839Y-15355857D02*
X14551791Y-15346333D01*
X14551791Y-15346333D02*
X14542267Y-15327286D01*
X14542267Y-15327286D02*
X14542267Y-15317762D01*
X14542267Y-15317762D02*
X14551791Y-15298714D01*
X14551791Y-15298714D02*
X14570839Y-15289190D01*
X14570839Y-15289190D02*
X14599410Y-15289190D01*
X14599410Y-15289190D02*
X14618458Y-15298714D01*
X14742267Y-15422524D02*
X14723220Y-15413000D01*
X14723220Y-15413000D02*
X14713696Y-15393952D01*
X14713696Y-15393952D02*
X14713696Y-15222524D01*
X14847029Y-15422524D02*
X14827981Y-15413000D01*
X14827981Y-15413000D02*
X14818458Y-15403476D01*
X14818458Y-15403476D02*
X14808934Y-15384428D01*
X14808934Y-15384428D02*
X14808934Y-15327286D01*
X14808934Y-15327286D02*
X14818458Y-15308238D01*
X14818458Y-15308238D02*
X14827981Y-15298714D01*
X14827981Y-15298714D02*
X14847029Y-15289190D01*
X14847029Y-15289190D02*
X14875601Y-15289190D01*
X14875601Y-15289190D02*
X14894648Y-15298714D01*
X14894648Y-15298714D02*
X14904172Y-15308238D01*
X14904172Y-15308238D02*
X14913696Y-15327286D01*
X14913696Y-15327286D02*
X14913696Y-15384428D01*
X14913696Y-15384428D02*
X14904172Y-15403476D01*
X14904172Y-15403476D02*
X14894648Y-15413000D01*
X14894648Y-15413000D02*
X14875601Y-15422524D01*
X14875601Y-15422524D02*
X14847029Y-15422524D01*
X14970839Y-15289190D02*
X15047029Y-15289190D01*
X14999410Y-15222524D02*
X14999410Y-15393952D01*
X14999410Y-15393952D02*
X15008934Y-15413000D01*
X15008934Y-15413000D02*
X15027981Y-15422524D01*
X15027981Y-15422524D02*
X15047029Y-15422524D01*
X15104172Y-15413000D02*
X15123220Y-15422524D01*
X15123220Y-15422524D02*
X15161315Y-15422524D01*
X15161315Y-15422524D02*
X15180362Y-15413000D01*
X15180362Y-15413000D02*
X15189886Y-15393952D01*
X15189886Y-15393952D02*
X15189886Y-15384428D01*
X15189886Y-15384428D02*
X15180362Y-15365381D01*
X15180362Y-15365381D02*
X15161315Y-15355857D01*
X15161315Y-15355857D02*
X15132743Y-15355857D01*
X15132743Y-15355857D02*
X15113696Y-15346333D01*
X15113696Y-15346333D02*
X15104172Y-15327286D01*
X15104172Y-15327286D02*
X15104172Y-15317762D01*
X15104172Y-15317762D02*
X15113696Y-15298714D01*
X15113696Y-15298714D02*
X15132743Y-15289190D01*
X15132743Y-15289190D02*
X15161315Y-15289190D01*
X15161315Y-15289190D02*
X15180362Y-15298714D01*
X15256553Y-15498714D02*
X15266077Y-15489190D01*
X15266077Y-15489190D02*
X15285124Y-15460619D01*
X15285124Y-15460619D02*
X15294648Y-15441571D01*
X15294648Y-15441571D02*
X15304172Y-15413000D01*
X15304172Y-15413000D02*
X15313696Y-15365381D01*
X15313696Y-15365381D02*
X15313696Y-15327286D01*
X15313696Y-15327286D02*
X15304172Y-15279667D01*
X15304172Y-15279667D02*
X15294648Y-15251095D01*
X15294648Y-15251095D02*
X15285124Y-15232048D01*
X15285124Y-15232048D02*
X15266077Y-15203476D01*
X15266077Y-15203476D02*
X15256553Y-15193952D01*
M02*
